<svg xmlns="http://www.w3.org/2000/svg" xmlns:xlink="http://www.w3.org/1999/xlink" width="16" height="16"><defs><linearGradient id="b" x1="-909.131" x2="-904.895" y1="956.684" y2="952.552" gradientTransform="translate(255.506 -869.862)" gradientUnits="userSpaceOnUse" xlink:href="#a"/><linearGradient id="a"><stop offset="0" stop-color="#402d5f"/><stop offset="1" stop-color="#2f213e"/></linearGradient></defs><path style="line-height:normal;text-indent:0;text-align:start;text-decoration-line:none;text-decoration-style:solid;text-decoration-color:#000;text-transform:none;block-progression:tb;white-space:normal;isolation:auto;mix-blend-mode:normal;solid-color:#000;solid-opacity:1;marker:none" fill="url(#b)" d="M-653.545 79.5a.5.5 0 0 0 .05 1c3.32 0 6 2.68 6 6a.5.5 0 1 0 1 0c0-3.86-3.14-7-7-7a.5.5 0 0 0-.05 0zm0 2a.5.5 0 0 0 .05 1c2.216 0 4 1.785 4 4a.5.5 0 1 0 1 0c0-2.756-2.244-5-5-5a.5.5 0 0 0-.05 0zm0 2a.5.5 0 0 0 .05 1c1.111 0 2 .89 2 2a.5.5 0 1 0 1 0c0-1.65-1.348-3-3-3a.5.5 0 0 0-.05 0zm.05 2c-.545 0-1 .454-1 1s.455 1 1 1c.547 0 1-.454 1-1s-.453-1-1-1z" color="#000" enable-background="accumulate" font-family="sans-serif" font-weight="400" overflow="visible" transform="translate(658.494 -75.5)"/></svg>